<?xml version="1.0" encoding="UTF-8" standalone="no"?>
<!-- Generator: Adobe Illustrator 21.0.2, SVG Export Plug-In . SVG Version: 6.00 Build 0)  -->

<svg
   version="1.1"
   id="Layer_1"
   x="0px"
   y="0px"
   viewBox="0 0 163.15952 188.79448"
   xml:space="preserve"
   sodipodi:docname="logo.svg"
   inkscape:version="1.4.2 (ebf0e940d0, 2025-05-08)"
   width="163.15952"
   height="188.79448"
   xmlns:inkscape="http://www.inkscape.org/namespaces/inkscape"
   xmlns:sodipodi="http://sodipodi.sourceforge.net/DTD/sodipodi-0.dtd"
   xmlns="http://www.w3.org/2000/svg"
   xmlns:svg="http://www.w3.org/2000/svg"><defs
   id="defs5"><linearGradient
     id="linearGradient3349"
     inkscape:swatch="solid"><stop
       style="stop-color:#00ff00;stop-opacity:1;"
       offset="0"
       id="stop3347" /></linearGradient><linearGradient
     id="linearGradient1323"
     inkscape:swatch="solid"><stop
       style="stop-color:#77a3b0;stop-opacity:1;"
       offset="0"
       id="stop1321" /></linearGradient><inkscape:perspective
     sodipodi:type="inkscape:persp3d"
     inkscape:vp_x="0 : 73.88276 : 1"
     inkscape:vp_y="0 : 1000 : 0"
     inkscape:vp_z="1500.0001 : 73.88276 : 1"
     inkscape:persp3d-origin="750.00005 : -220.16271 : 1"
     id="perspective4362" /><clipPath
     id="clp12"><path
       d="m 45.315,71.927 h 12.92 v 15.867 h -12.92 z"
       id="path184"
       inkscape:connector-curvature="0" /></clipPath><clipPath
     id="clp21"><path
       d="m 123.91,72.178 h 26.23 v 15.294 h -26.23 z"
       id="path592"
       inkscape:connector-curvature="0" /></clipPath><clipPath
     id="clp9"><path
       d="m 413.96,49.857 h 31.76 v 8.719 h -31.76 z"
       id="path100"
       inkscape:connector-curvature="0" /></clipPath><inkscape:perspective
     sodipodi:type="inkscape:persp3d"
     inkscape:vp_x="0 : -172.28566 : 1"
     inkscape:vp_y="0 : 999.99996 : 0"
     inkscape:vp_z="1500.0001 : -172.28566 : 1"
     inkscape:persp3d-origin="750.00003 : -466.33112 : 1"
     id="perspective4362-535" /><clipPath
     id="clp12-6"><path
       d="m 45.315,71.927 h 12.92 v 15.867 h -12.92 z"
       id="path184-2"
       inkscape:connector-curvature="0" /></clipPath><clipPath
     id="clp21-9"><path
       d="m 123.91,72.178 h 26.23 v 15.294 h -26.23 z"
       id="path592-12"
       inkscape:connector-curvature="0" /></clipPath><clipPath
     id="clp9-7"><path
       d="m 413.96,49.857 h 31.76 v 8.719 h -31.76 z"
       id="path100-0"
       inkscape:connector-curvature="0" /></clipPath><inkscape:perspective
     sodipodi:type="inkscape:persp3d"
     inkscape:vp_x="0 : -172.28566 : 1"
     inkscape:vp_y="0 : 999.99996 : 0"
     inkscape:vp_z="1500.0001 : -172.28566 : 1"
     inkscape:persp3d-origin="750.00003 : -466.33112 : 1"
     id="perspective4362-5" /><clipPath
     id="clp12-3"><path
       d="m 45.315,71.927 h 12.92 v 15.867 h -12.92 z"
       id="path184-5"
       inkscape:connector-curvature="0" /></clipPath><clipPath
     id="clp21-6"><path
       d="m 123.91,72.178 h 26.23 v 15.294 h -26.23 z"
       id="path592-2"
       inkscape:connector-curvature="0" /></clipPath><clipPath
     id="clp9-9"><path
       d="m 413.96,49.857 h 31.76 v 8.719 h -31.76 z"
       id="path100-1"
       inkscape:connector-curvature="0" /></clipPath><inkscape:perspective
     sodipodi:type="inkscape:persp3d"
     inkscape:vp_x="0 : 73.88276 : 1"
     inkscape:vp_y="0 : 1000 : 0"
     inkscape:vp_z="1500.0001 : 73.88276 : 1"
     inkscape:persp3d-origin="750.00005 : -220.16271 : 1"
     id="perspective4362-9" /><clipPath
     id="clp12-37"><path
       d="m 45.315,71.927 h 12.92 v 15.867 h -12.92 z"
       id="path184-4"
       inkscape:connector-curvature="0" /></clipPath><clipPath
     id="clp21-5"><path
       d="m 123.91,72.178 h 26.23 v 15.294 h -26.23 z"
       id="path592-25"
       inkscape:connector-curvature="0" /></clipPath><clipPath
     id="clp9-4"><path
       d="m 413.96,49.857 h 31.76 v 8.719 h -31.76 z"
       id="path100-7"
       inkscape:connector-curvature="0" /></clipPath><inkscape:perspective
     sodipodi:type="inkscape:persp3d"
     inkscape:vp_x="0 : 73.88276 : 1"
     inkscape:vp_y="0 : 1000 : 0"
     inkscape:vp_z="1500.0001 : 73.88276 : 1"
     inkscape:persp3d-origin="750.00005 : -220.16271 : 1"
     id="perspective4362-6" /><clipPath
     id="clp12-8"><path
       d="m 45.315,71.927 h 12.92 v 15.867 h -12.92 z"
       id="path184-9"
       inkscape:connector-curvature="0" /></clipPath><clipPath
     id="clp21-2"><path
       d="m 123.91,72.178 h 26.23 v 15.294 h -26.23 z"
       id="path592-6"
       inkscape:connector-curvature="0" /></clipPath><clipPath
     id="clp9-6"><path
       d="m 413.96,49.857 h 31.76 v 8.719 h -31.76 z"
       id="path100-4"
       inkscape:connector-curvature="0" /></clipPath><inkscape:perspective
     sodipodi:type="inkscape:persp3d"
     inkscape:vp_x="0 : 73.88276 : 1"
     inkscape:vp_y="0 : 1000 : 0"
     inkscape:vp_z="1500.0001 : 73.88276 : 1"
     inkscape:persp3d-origin="750.00005 : -220.16271 : 1"
     id="perspective4362-53" /><clipPath
     id="clp12-5"><path
       d="m 45.315,71.927 h 12.92 v 15.867 h -12.92 z"
       id="path184-6"
       inkscape:connector-curvature="0" /></clipPath><clipPath
     id="clp21-29"><path
       d="m 123.91,72.178 h 26.23 v 15.294 h -26.23 z"
       id="path592-1"
       inkscape:connector-curvature="0" /></clipPath><clipPath
     id="clp9-2"><path
       d="m 413.96,49.857 h 31.76 v 8.719 h -31.76 z"
       id="path100-70"
       inkscape:connector-curvature="0" /></clipPath><inkscape:perspective
     sodipodi:type="inkscape:persp3d"
     inkscape:vp_x="0 : 73.88276 : 1"
     inkscape:vp_y="0 : 1000 : 0"
     inkscape:vp_z="1500.0001 : 73.88276 : 1"
     inkscape:persp3d-origin="750.00005 : -220.16271 : 1"
     id="perspective4362-5356" /><clipPath
     id="clp12-2"><path
       d="m 45.315,71.927 h 12.92 v 15.867 h -12.92 z"
       id="path184-91"
       inkscape:connector-curvature="0" /></clipPath><clipPath
     id="clp21-27"><path
       d="m 123.91,72.178 h 26.23 v 15.294 h -26.23 z"
       id="path592-0"
       inkscape:connector-curvature="0" /></clipPath><clipPath
     id="clp9-93"><path
       d="m 413.96,49.857 h 31.76 v 8.719 h -31.76 z"
       id="path100-6"
       inkscape:connector-curvature="0" /></clipPath><inkscape:perspective
     sodipodi:type="inkscape:persp3d"
     inkscape:vp_x="0 : -172.28566 : 1"
     inkscape:vp_y="0 : 999.99996 : 0"
     inkscape:vp_z="1500.0001 : -172.28566 : 1"
     inkscape:persp3d-origin="750.00003 : -466.33112 : 1"
     id="perspective4362-535-0" /><clipPath
     id="clp12-6-6"><path
       d="m 45.315,71.927 h 12.92 v 15.867 h -12.92 z"
       id="path184-2-2"
       inkscape:connector-curvature="0" /></clipPath><clipPath
     id="clp21-9-6"><path
       d="m 123.91,72.178 h 26.23 v 15.294 h -26.23 z"
       id="path592-12-1"
       inkscape:connector-curvature="0" /></clipPath><clipPath
     id="clp9-7-8"><path
       d="m 413.96,49.857 h 31.76 v 8.719 h -31.76 z"
       id="path100-0-7"
       inkscape:connector-curvature="0" /></clipPath><inkscape:perspective
     sodipodi:type="inkscape:persp3d"
     inkscape:vp_x="0 : -172.28566 : 1"
     inkscape:vp_y="0 : 999.99996 : 0"
     inkscape:vp_z="1500.0001 : -172.28566 : 1"
     inkscape:persp3d-origin="750.00003 : -466.33112 : 1"
     id="perspective4362-5-9" /><clipPath
     id="clp12-3-2"><path
       d="m 45.315,71.927 h 12.92 v 15.867 h -12.92 z"
       id="path184-5-0"
       inkscape:connector-curvature="0" /></clipPath><clipPath
     id="clp21-6-2"><path
       d="m 123.91,72.178 h 26.23 v 15.294 h -26.23 z"
       id="path592-2-3"
       inkscape:connector-curvature="0" /></clipPath><clipPath
     id="clp9-9-7"><path
       d="m 413.96,49.857 h 31.76 v 8.719 h -31.76 z"
       id="path100-1-5"
       inkscape:connector-curvature="0" /></clipPath><inkscape:perspective
     sodipodi:type="inkscape:persp3d"
     inkscape:vp_x="0 : 73.88276 : 1"
     inkscape:vp_y="0 : 1000 : 0"
     inkscape:vp_z="1500.0001 : 73.88276 : 1"
     inkscape:persp3d-origin="750.00005 : -220.16271 : 1"
     id="perspective4362-9-9" /><clipPath
     id="clp12-37-2"><path
       d="m 45.315,71.927 h 12.92 v 15.867 h -12.92 z"
       id="path184-4-2"
       inkscape:connector-curvature="0" /></clipPath><clipPath
     id="clp21-5-8"><path
       d="m 123.91,72.178 h 26.23 v 15.294 h -26.23 z"
       id="path592-25-9"
       inkscape:connector-curvature="0" /></clipPath><clipPath
     id="clp9-4-7"><path
       d="m 413.96,49.857 h 31.76 v 8.719 h -31.76 z"
       id="path100-7-3"
       inkscape:connector-curvature="0" /></clipPath><inkscape:perspective
     sodipodi:type="inkscape:persp3d"
     inkscape:vp_x="0 : 73.88276 : 1"
     inkscape:vp_y="0 : 1000 : 0"
     inkscape:vp_z="1500.0001 : 73.88276 : 1"
     inkscape:persp3d-origin="750.00005 : -220.16271 : 1"
     id="perspective4362-6-6" /><clipPath
     id="clp12-8-1"><path
       d="m 45.315,71.927 h 12.92 v 15.867 h -12.92 z"
       id="path184-9-2"
       inkscape:connector-curvature="0" /></clipPath><clipPath
     id="clp21-2-9"><path
       d="m 123.91,72.178 h 26.23 v 15.294 h -26.23 z"
       id="path592-6-3"
       inkscape:connector-curvature="0" /></clipPath><clipPath
     id="clp9-6-1"><path
       d="m 413.96,49.857 h 31.76 v 8.719 h -31.76 z"
       id="path100-4-9"
       inkscape:connector-curvature="0" /></clipPath><inkscape:perspective
     sodipodi:type="inkscape:persp3d"
     inkscape:vp_x="0 : 73.88276 : 1"
     inkscape:vp_y="0 : 1000 : 0"
     inkscape:vp_z="1500.0001 : 73.88276 : 1"
     inkscape:persp3d-origin="750.00005 : -220.16271 : 1"
     id="perspective4362-53-4" /><clipPath
     id="clp12-5-7"><path
       d="m 45.315,71.927 h 12.92 v 15.867 h -12.92 z"
       id="path184-6-8"
       inkscape:connector-curvature="0" /></clipPath><clipPath
     id="clp21-29-4"><path
       d="m 123.91,72.178 h 26.23 v 15.294 h -26.23 z"
       id="path592-1-5"
       inkscape:connector-curvature="0" /></clipPath><clipPath
     id="clp9-2-0"><path
       d="m 413.96,49.857 h 31.76 v 8.719 h -31.76 z"
       id="path100-70-3"
       inkscape:connector-curvature="0" /></clipPath><clipPath
     clipPathUnits="userSpaceOnUse"
     id="clipPath7"><path
       d="m 4269.8013,3683.3309 h 1147.8999 v 971.0208 H 4269.8013 Z"
       id="path7"
       style="stroke-width:1" /></clipPath><clipPath
     clipPathUnits="userSpaceOnUse"
     id="clipPath6"><path
       d="M 4470.8312,4481.7918 H 4605.37 v 78.0115 h -134.5388 z"
       id="path6"
       style="stroke-width:1" /></clipPath><clipPath
     clipPathUnits="userSpaceOnUse"
     id="clipPath3"><path
       d="m 4741.7216,4511.2015 h 112.5895 v 65.3909 h -112.5895 z"
       id="path3"
       style="stroke-width:1" /></clipPath><clipPath
     clipPathUnits="userSpaceOnUse"
     id="clipPath8"><path
       d="m 5003.011,4464.492 h 106.2583 v 61.7067 H 5003.011 Z"
       id="path8"
       style="stroke-width:1" /></clipPath><clipPath
     clipPathUnits="userSpaceOnUse"
     id="clipPath2"><path
       d="m 4641.1913,4337.7815 h 112.6288 v 65.3089 h -112.6288 z"
       id="path2"
       style="stroke-width:1" /></clipPath><clipPath
     clipPathUnits="userSpaceOnUse"
     id="clipPath11"><path
       d="m 4831.9313,4184.5413 h 95.2423 v 65.6607 h -95.2423 z"
       id="path11"
       style="stroke-width:1" /></clipPath><clipPath
     clipPathUnits="userSpaceOnUse"
     id="clipPath4"><path
       d="m 4538.1014,4190.2212 h 95.2303 v 65.6607 h -95.2303 z"
       id="path4"
       style="stroke-width:1" /></clipPath><clipPath
     clipPathUnits="userSpaceOnUse"
     id="clipPath5"><path
       d="m 5164.2513,4213.9711 h 95.2302 v 65.6607 h -95.2302 z"
       id="path5"
       style="stroke-width:1" /></clipPath><clipPath
     clipPathUnits="userSpaceOnUse"
     id="clipPath10"><path
       d="m 4394.9914,4317.7212 h 112.5935 v 65.3908 h -112.5935 z"
       id="path10"
       style="stroke-width:1" /></clipPath><clipPath
     clipPathUnits="userSpaceOnUse"
     id="clipPath9"><path
       d="m 4921.9716,4322.9216 h 110.633 v 68.6797 h -110.633 z"
       id="path9"
       style="stroke-width:1" /></clipPath></defs><sodipodi:namedview
   id="namedview5"
   pagecolor="#ffffff"
   bordercolor="#000000"
   borderopacity="0.25"
   inkscape:showpageshadow="2"
   inkscape:pageopacity="0.0"
   inkscape:pagecheckerboard="0"
   inkscape:deskcolor="#d1d1d1"
   inkscape:zoom="9.3546667"
   inkscape:cx="43.881842"
   inkscape:cy="24.319413"
   inkscape:window-width="1920"
   inkscape:window-height="1128"
   inkscape:window-x="0"
   inkscape:window-y="0"
   inkscape:window-maximized="1"
   inkscape:current-layer="g7"
   showguides="true"><inkscape:page
     x="0"
     y="0"
     width="163.15952"
     height="188.79448"
     id="page5"
     margin="0"
     bleed="0" /><inkscape:page
     x="586.05737"
     y="-252.60782"
     width="163.15952"
     height="188.79448"
     id="page6"
     margin="0"
     bleed="0" /><sodipodi:guide
     position="162.56314,655.60277"
     orientation="0,-1"
     id="guide7"
     inkscape:locked="false" /><sodipodi:guide
     position="81.579758,561.8956"
     orientation="1,0"
     id="guide8"
     inkscape:locked="false" /></sodipodi:namedview>
<style
   type="text/css"
   id="style1">
	.st0{fill:#010101;}
</style>


<g
   inkscape:label="Layer 1"
   inkscape:groupmode="layer"
   id="layer1"
   transform="matrix(3.7795275,0,0,3.7795275,1091.6548,1924.8386)"><g
     id="g46348"
     style="fill:#1b1b1f;fill-opacity:1;stroke:#f89d42"><g
       id="g57961"
       transform="rotate(-30,-112.35409,-551.13016)"
       style="fill:#1b1b1f;fill-opacity:1;stroke:#f89d42"><g
         id="g57911"
         style="fill:#1b1b1f;fill-opacity:1;stroke:#f89d42"><path
           sodipodi:type="star"
           style="fill:#1b1b1f;fill-opacity:1;stroke:#f89d42;stroke-width:21.7043;stroke-miterlimit:4;stroke-dasharray:none;stroke-opacity:1"
           id="path4560"
           sodipodi:sides="6"
           sodipodi:cx="-5551.2134"
           sodipodi:cy="-204.52565"
           sodipodi:r1="1701.6108"
           sodipodi:r2="1473.6381"
           sodipodi:arg1="1.0471976"
           sodipodi:arg2="1.5707963"
           inkscape:flatsided="true"
           inkscape:rounded="0"
           inkscape:randomized="0"
           inkscape:transform-center-x="1.5731476e-05"
           inkscape:transform-center-y="7.9344316e-05"
           transform="matrix(-0.00728526,0.01261844,-0.0125921,-0.00727005,-322.92741,-502.14397)"
           d="m -4700.408,1269.1126 -1701.6109,-10e-5 -850.8053,-1473.63823 850.8055,-1473.63817 1701.6108,10e-5 850.8054,1473.63823 z" /><g
           aria-label="ECONOMETRICS"
           transform="rotate(30,0.13900245,0.03739262)"
           id="text83343"
           style="font-weight:bold;font-size:7.05556px;font-family:Arial;-inkscape-font-specification:'Arial Bold';word-spacing:0px;fill:#1b1b1f;fill-opacity:1;stroke:#f89d42;stroke-width:0.141;stroke-linecap:round;stroke-linejoin:round" /></g></g></g><text
     xml:space="preserve"
     style="font-size:4.23333px;font-family:sans-serif;-inkscape-font-specification:sans-serif;fill:#fdf0e3;fill-opacity:1;stroke:#4a280d;stroke-width:15;stroke-linecap:round;stroke-linejoin:round;stroke-miterlimit:4;stroke-dasharray:none"
     x="-105.7908"
     y="-558.50726"
     id="text265343"><tspan
       sodipodi:role="line"
       id="tspan265341"
       style="stroke-width:15;stroke-miterlimit:4;stroke-dasharray:none"
       x="-105.7908"
       y="-558.50726" /></text><text
     xml:space="preserve"
     style="font-size:4.23333px;font-family:sans-serif;-inkscape-font-specification:sans-serif;fill:#fdf0e3;fill-opacity:1;stroke:#4a280d;stroke-width:15;stroke-linecap:round;stroke-linejoin:round;stroke-miterlimit:4;stroke-dasharray:none"
     x="-106.25206"
     y="-560.1264"
     id="text268683"><tspan
       sodipodi:role="line"
       id="tspan268681"
       style="stroke-width:15"
       x="-106.25206"
       y="-560.1264" /></text><text
     xml:space="preserve"
     style="font-size:4.23333px;font-family:sans-serif;-inkscape-font-specification:sans-serif;fill:#fdf0e3;fill-opacity:1;stroke:#4a280d;stroke-width:5;stroke-linecap:round;stroke-linejoin:round;stroke-miterlimit:4;stroke-dasharray:none"
     x="-78.450752"
     y="-551.28766"
     id="text270271"><tspan
       sodipodi:role="line"
       id="tspan270269"
       style="stroke-width:5;stroke-miterlimit:4;stroke-dasharray:none"
       x="-78.450752"
       y="-551.28766" /></text><text
     xml:space="preserve"
     style="font-size:4.23333px;font-family:sans-serif;-inkscape-font-specification:sans-serif;fill:#fdf0e3;fill-opacity:1;stroke:#4a280d;stroke-width:4.99999;stroke-linecap:round;stroke-linejoin:round;stroke-miterlimit:4;stroke-dasharray:none"
     x="-75.665482"
     y="-548.79803"
     id="text275393"><tspan
       sodipodi:role="line"
       id="tspan275391"
       style="stroke-width:5"
       x="-75.665482"
       y="-548.79803" /></text></g><style
   type="text/css"
   id="style10296">
	.st0{fill:#75AADB;}
	.st1{fill:#4D4D4D;}
	.st2{fill:#FFFFFF;}
	.st3{fill:url(#SVGID_1_);}
	.st4{fill:url(#SVGID_2_);}
	.st5{fill:url(#SVGID_3_);}
	.st6{fill:url(#SVGID_4_);}
	.st7{fill:url(#SVGID_5_);}
	.st8{fill:url(#SVGID_6_);}
	.st9{fill:url(#SVGID_7_);}
	.st10{fill:url(#SVGID_8_);}
	.st11{fill:url(#SVGID_9_);}
	.st12{fill:url(#SVGID_10_);}
	.st13{opacity:0.18;fill:url(#SVGID_11_);}
	.st14{opacity:0.3;}
</style><style
   type="text/css"
   id="style10296-3">
	.st0{fill:#75AADB;}
	.st1{fill:#4D4D4D;}
	.st2{fill:#FFFFFF;}
	.st3{fill:url(#SVGID_1_);}
	.st4{fill:url(#SVGID_2_);}
	.st5{fill:url(#SVGID_3_);}
	.st6{fill:url(#SVGID_4_);}
	.st7{fill:url(#SVGID_5_);}
	.st8{fill:url(#SVGID_6_);}
	.st9{fill:url(#SVGID_7_);}
	.st10{fill:url(#SVGID_8_);}
	.st11{fill:url(#SVGID_9_);}
	.st12{fill:url(#SVGID_10_);}
	.st13{opacity:0.18;fill:url(#SVGID_11_);}
	.st14{opacity:0.3;}
</style><style
   type="text/css"
   id="style10296-7">
	.st0{fill:#75AADB;}
	.st1{fill:#4D4D4D;}
	.st2{fill:#FFFFFF;}
	.st3{fill:url(#SVGID_1_);}
	.st4{fill:url(#SVGID_2_);}
	.st5{fill:url(#SVGID_3_);}
	.st6{fill:url(#SVGID_4_);}
	.st7{fill:url(#SVGID_5_);}
	.st8{fill:url(#SVGID_6_);}
	.st9{fill:url(#SVGID_7_);}
	.st10{fill:url(#SVGID_8_);}
	.st11{fill:url(#SVGID_9_);}
	.st12{fill:url(#SVGID_10_);}
	.st13{opacity:0.18;fill:url(#SVGID_11_);}
	.st14{opacity:0.3;}
</style><style
   type="text/css"
   id="style10296-4">
	.st0{fill:#75AADB;}
	.st1{fill:#4D4D4D;}
	.st2{fill:#FFFFFF;}
	.st3{fill:url(#SVGID_1_);}
	.st4{fill:url(#SVGID_2_);}
	.st5{fill:url(#SVGID_3_);}
	.st6{fill:url(#SVGID_4_);}
	.st7{fill:url(#SVGID_5_);}
	.st8{fill:url(#SVGID_6_);}
	.st9{fill:url(#SVGID_7_);}
	.st10{fill:url(#SVGID_8_);}
	.st11{fill:url(#SVGID_9_);}
	.st12{fill:url(#SVGID_10_);}
	.st13{opacity:0.18;fill:url(#SVGID_11_);}
	.st14{opacity:0.3;}
</style><style
   type="text/css"
   id="style10296-9">
	.st0{fill:#75AADB;}
	.st1{fill:#4D4D4D;}
	.st2{fill:#FFFFFF;}
	.st3{fill:url(#SVGID_1_);}
	.st4{fill:url(#SVGID_2_);}
	.st5{fill:url(#SVGID_3_);}
	.st6{fill:url(#SVGID_4_);}
	.st7{fill:url(#SVGID_5_);}
	.st8{fill:url(#SVGID_6_);}
	.st9{fill:url(#SVGID_7_);}
	.st10{fill:url(#SVGID_8_);}
	.st11{fill:url(#SVGID_9_);}
	.st12{fill:url(#SVGID_10_);}
	.st13{opacity:0.18;fill:url(#SVGID_11_);}
	.st14{opacity:0.3;}
</style><style
   type="text/css"
   id="style10296-2">
	.st0{fill:#75AADB;}
	.st1{fill:#4D4D4D;}
	.st2{fill:#FFFFFF;}
	.st3{fill:url(#SVGID_1_);}
	.st4{fill:url(#SVGID_2_);}
	.st5{fill:url(#SVGID_3_);}
	.st6{fill:url(#SVGID_4_);}
	.st7{fill:url(#SVGID_5_);}
	.st8{fill:url(#SVGID_6_);}
	.st9{fill:url(#SVGID_7_);}
	.st10{fill:url(#SVGID_8_);}
	.st11{fill:url(#SVGID_9_);}
	.st12{fill:url(#SVGID_10_);}
	.st13{opacity:0.18;fill:url(#SVGID_11_);}
	.st14{opacity:0.3;}
</style><style
   type="text/css"
   id="style10296-6">
	.st0{fill:#75AADB;}
	.st1{fill:#4D4D4D;}
	.st2{fill:#FFFFFF;}
	.st3{fill:url(#SVGID_1_);}
	.st4{fill:url(#SVGID_2_);}
	.st5{fill:url(#SVGID_3_);}
	.st6{fill:url(#SVGID_4_);}
	.st7{fill:url(#SVGID_5_);}
	.st8{fill:url(#SVGID_6_);}
	.st9{fill:url(#SVGID_7_);}
	.st10{fill:url(#SVGID_8_);}
	.st11{fill:url(#SVGID_9_);}
	.st12{fill:url(#SVGID_10_);}
	.st13{opacity:0.18;fill:url(#SVGID_11_);}
	.st14{opacity:0.3;}
</style><style
   type="text/css"
   id="style10296-3-5">
	.st0{fill:#75AADB;}
	.st1{fill:#4D4D4D;}
	.st2{fill:#FFFFFF;}
	.st3{fill:url(#SVGID_1_);}
	.st4{fill:url(#SVGID_2_);}
	.st5{fill:url(#SVGID_3_);}
	.st6{fill:url(#SVGID_4_);}
	.st7{fill:url(#SVGID_5_);}
	.st8{fill:url(#SVGID_6_);}
	.st9{fill:url(#SVGID_7_);}
	.st10{fill:url(#SVGID_8_);}
	.st11{fill:url(#SVGID_9_);}
	.st12{fill:url(#SVGID_10_);}
	.st13{opacity:0.18;fill:url(#SVGID_11_);}
	.st14{opacity:0.3;}
</style><style
   type="text/css"
   id="style10296-7-6">
	.st0{fill:#75AADB;}
	.st1{fill:#4D4D4D;}
	.st2{fill:#FFFFFF;}
	.st3{fill:url(#SVGID_1_);}
	.st4{fill:url(#SVGID_2_);}
	.st5{fill:url(#SVGID_3_);}
	.st6{fill:url(#SVGID_4_);}
	.st7{fill:url(#SVGID_5_);}
	.st8{fill:url(#SVGID_6_);}
	.st9{fill:url(#SVGID_7_);}
	.st10{fill:url(#SVGID_8_);}
	.st11{fill:url(#SVGID_9_);}
	.st12{fill:url(#SVGID_10_);}
	.st13{opacity:0.18;fill:url(#SVGID_11_);}
	.st14{opacity:0.3;}
</style><style
   type="text/css"
   id="style10296-4-9">
	.st0{fill:#75AADB;}
	.st1{fill:#4D4D4D;}
	.st2{fill:#FFFFFF;}
	.st3{fill:url(#SVGID_1_);}
	.st4{fill:url(#SVGID_2_);}
	.st5{fill:url(#SVGID_3_);}
	.st6{fill:url(#SVGID_4_);}
	.st7{fill:url(#SVGID_5_);}
	.st8{fill:url(#SVGID_6_);}
	.st9{fill:url(#SVGID_7_);}
	.st10{fill:url(#SVGID_8_);}
	.st11{fill:url(#SVGID_9_);}
	.st12{fill:url(#SVGID_10_);}
	.st13{opacity:0.18;fill:url(#SVGID_11_);}
	.st14{opacity:0.3;}
</style><style
   type="text/css"
   id="style10296-9-3">
	.st0{fill:#75AADB;}
	.st1{fill:#4D4D4D;}
	.st2{fill:#FFFFFF;}
	.st3{fill:url(#SVGID_1_);}
	.st4{fill:url(#SVGID_2_);}
	.st5{fill:url(#SVGID_3_);}
	.st6{fill:url(#SVGID_4_);}
	.st7{fill:url(#SVGID_5_);}
	.st8{fill:url(#SVGID_6_);}
	.st9{fill:url(#SVGID_7_);}
	.st10{fill:url(#SVGID_8_);}
	.st11{fill:url(#SVGID_9_);}
	.st12{fill:url(#SVGID_10_);}
	.st13{opacity:0.18;fill:url(#SVGID_11_);}
	.st14{opacity:0.3;}
</style><style
   type="text/css"
   id="style10296-2-7">
	.st0{fill:#75AADB;}
	.st1{fill:#4D4D4D;}
	.st2{fill:#FFFFFF;}
	.st3{fill:url(#SVGID_1_);}
	.st4{fill:url(#SVGID_2_);}
	.st5{fill:url(#SVGID_3_);}
	.st6{fill:url(#SVGID_4_);}
	.st7{fill:url(#SVGID_5_);}
	.st8{fill:url(#SVGID_6_);}
	.st9{fill:url(#SVGID_7_);}
	.st10{fill:url(#SVGID_8_);}
	.st11{fill:url(#SVGID_9_);}
	.st12{fill:url(#SVGID_10_);}
	.st13{opacity:0.18;fill:url(#SVGID_11_);}
	.st14{opacity:0.3;}
</style><g
   id="g6"
   transform="translate(-38.672582,-310.45261)"
   style="fill:#f89d42;fill-opacity:1"><g
     id="g7"
     style="fill:#f89d42;fill-opacity:1"><path
       style="font-size:21.0873px;line-height:0.9;font-family:'SF Distant Galaxy';-inkscape-font-specification:'SF Distant Galaxy';text-align:center;text-anchor:middle;fill:#f89d42;fill-opacity:1;stroke-width:1.49437"
       d="m 69.12632,355.48509 q -0.53027,-0.91845 -1.648972,-1.18806 -1.095708,-0.27098 -2.032003,0.26959 l -2.20251,1.27162 2.63591,4.56553 2.20251,-1.27162 q 0.945207,-0.54572 1.258393,-1.63012 0.316942,-1.09848 -0.213328,-2.01694 z m 4.101851,-2.3682 q 1.477555,2.5592 0.532769,5.49444 -0.895423,2.8354 -3.481375,4.3284 l -6.464862,3.73249 -7.027379,-12.17177 6.464862,-3.73249 q 2.568112,-1.4827 5.484044,-0.85968 3.024686,0.66725 4.491941,3.20861 z m 14.266909,-5.16953 q 0.895795,1.55156 0.412013,3.32895 -0.497857,1.7736 -2.031588,2.6591 l -8.364203,4.82908 -2.023265,-3.5044 7.606249,-4.39147 q 0.454776,-0.26256 0.176766,-0.74409 -0.288299,-0.49935 -0.743075,-0.23679 l -4.56553,2.63591 -1.848231,-3.20122 4.56553,-2.63591 q 0.454776,-0.26257 0.192216,-0.71734 -0.308895,-0.53502 -0.763671,-0.27245 l -7.606249,4.39147 -2.01812,-3.49549 8.364203,-4.82908 q 1.587234,-0.91639 3.346774,-0.42231 1.773616,0.49785 2.679711,2.06725 0.71561,1.23948 0.534261,2.67579 1.334559,0.5611 2.086209,1.863 z m 11.318094,-12.02742 q 0.96273,1.66749 0.41625,3.70697 -0.54647,2.03946 -2.222877,3.00733 l -4.101843,2.3682 2.11079,3.656 -4.565538,2.63592 -3.778825,-6.54512 7.45466,-4.30395 q 0.365601,-0.21108 0.478666,-0.63305 0.116832,-0.43602 -0.09425,-0.80162 -0.21108,-0.3656 -0.647102,-0.48243 -0.42711,-0.12198 -0.792711,0.0891 l -7.45466,4.30395 -2.19316,-3.79866 8.667381,-5.00412 q 1.676409,-0.96787 3.715871,-0.4214 2.039478,0.54647 3.007348,2.22288 z m 10.645006,-3.72046 q -0.53027,-0.91845 -1.64898,-1.18806 -1.09571,-0.27098 -2.032,0.26959 -0.95413,0.55086 -1.26731,1.63527 -0.31317,1.08441 0.22225,2.01178 0.53542,0.92738 1.63113,1.19837 1.09571,0.27098 2.04984,-0.27989 0.94521,-0.54571 1.25839,-1.63012 0.31695,-1.09848 -0.21332,-2.01694 z m 4.10184,-2.3682 q 1.47755,2.5592 0.53277,5.49445 -0.89543,2.8354 -3.48137,4.32839 -2.58595,1.493 -5.48919,0.85076 -3.01439,-0.64941 -4.49195,-3.20861 -1.467246,-2.54136 -0.53276,-5.49444 0.91841,-2.83679 3.48652,-4.31949 2.56811,-1.4827 5.48404,-0.85967 3.02468,0.66725 4.49194,3.20861 z"
       id="text5"
       aria-label="D3PO" /><g
       id="g11"
       transform="matrix(0.33861931,0,0,0.33861931,-11.871697,272.12794)"><path
         fill-rule="evenodd"
         clip-rule="evenodd"
         d="m 353.73498,324.19962 c -4.4597,-4.04979 -8.75959,-8.1667 -13.28929,-12.01227 -5.52381,-4.68999 -6.13601,-10.59088 -5.12115,-17.22273 1.61065,-10.52184 6.41266,-19.62712 12.17498,-28.30898 7.79542,-11.74575 17.78037,-21.52986 30.02584,-28.24717 18.71847,-10.26789 38.68259,-14.61509 59.90201,-8.26471 0.43839,0.13132 0.86761,0.29934 1.31324,0.39735 0.62331,0.13663 1.25723,0.22305 2.22188,0.38866 0.34038,-5.03907 0.67159,-10.04628 1.01921,-15.05155 0.19699,-2.84567 1.89889,-4.10387 4.34865,-3.21647 1.92351,0.6967 2.13595,2.24892 2.02539,4.0189 -0.31286,5.02845 -0.67401,10.05834 -0.77395,15.09258 -0.0198,0.98976 0.8116,2.3339 1.66038,2.93499 1.91482,1.35573 4.08601,2.34838 6.42135,3.63652 0.39639,-5.54264 0.81498,-10.79125 1.1375,-16.04565 0.42728,-6.94809 0.78553,-13.90005 1.16067,-20.85104 0.0859,-1.5894 0.009,-3.43132 2.2523,-3.34441 2.10987,0.0821 3.76735,1.21523 3.83736,3.52933 0.0946,3.11507 0.0309,6.24415 -0.15112,9.35634 -0.56634,9.69478 -1.31131,19.37992 -1.74777,29.07953 -0.0686,1.51844 0.674,3.57375 1.77577,4.56978 15.67775,14.18056 24.14717,31.76492 24.2698,52.8844 0.0546,9.2984 -1.33255,18.62046 -2.38797,27.89473 -0.17091,1.50008 -1.75742,3.25895 -3.16529,4.12608 -6.00903,3.70024 -12.19815,7.10838 -18.31774,10.62998 -0.62282,0.35825 -1.22102,0.75898 -2.05145,1.27752 3.47042,2.67717 6.84043,5.13949 10.06172,7.78431 24.03178,19.72899 39.37205,45.00207 45.42839,75.29877 9.31241,46.58616 -2.50095,87.68618 -35.31838,122.17027 -19.36544,20.3494 -43.40688,33.09264 -71.12103,37.29645 -47.39197,7.18998 -87.65721,-7.18949 -119.86631,-42.91199 -17.20487,-19.08106 -27.75471,-41.57462 -31.6447,-66.9486 -5.93661,-38.71687 3.23868,-73.69874 27.18596,-104.70662 16.91326,-21.90018 38.9298,-36.44477 65.26795,-44.61196 0.34907,-0.10815 0.70442,-0.20133 1.04431,-0.33314 0.16367,-0.0652 0.29886,-0.20277 0.42149,-0.2892 z"
         id="path1"
         style="stroke-width:0.482808" /><g
         id="g19"
         transform="matrix(0.48280821,0,0,0.48280821,177.52061,180.81428)">
	<path
   fill-rule="evenodd"
   clip-rule="evenodd"
   fill="#a7a9ac"
   d="m 334.893,252.021 c 101.468,-9.031 198.623,5.578 293.858,39.804 -0.354,-0.775 -0.055,-0.435 -0.081,-0.124 -0.115,1.303 -0.328,2.598 -0.492,3.814 -0.551,0.175 -0.96,0.464 -1.244,0.372 -94.12,-30.761 -190.575,-44.958 -289.616,-40.967 -0.545,0.022 -1.145,-1.322 -2.425,-2.899 z"
   id="path2-5"
   style="fill:#808080;fill-opacity:1" />
	<g
   id="g18">
		<path
   fill-rule="evenodd"
   clip-rule="evenodd"
   fill="#a7a9ac"
   d="m 286.566,465.885 c 14.706,6.327 25.458,16.71 34.338,28.96 5.312,7.327 9.298,15.604 14.04,23.357 1.738,2.841 1.155,4.345 -1.386,6.542 -13.772,11.907 -27.312,24.086 -40.888,36.221 -3.395,3.034 -4.099,6.11 -3.478,11.3 1.874,15.66 1.94,31.507 -6.03,46.11 -9.468,17.348 -18.597,17.645 -33.168,6.196 -6.661,-5.234 -11.21,-13.794 -15.241,-21.606 -8.975,-17.393 -11.451,-36.021 -7.664,-55.347 0.365,-1.861 0.74,-3.736 1.332,-5.532 5.524,-16.76 17.402,-22.041 33.975,-15.15 6.174,2.567 7.356,2.276 9.203,-4.377 4.7,-16.933 9.054,-33.962 13.54,-50.954 0.472,-1.793 0.898,-3.595 1.427,-5.72 z m -3.917,124.157 c -0.22,-18.249 -7.468,-33.775 -17.567,-48.067 -3.597,-5.09 -8.987,-9.087 -15.955,-8.07 -7.273,1.06 -10.692,6.57 -13.013,12.897 -3.359,9.159 -3.314,18.623 -2.09,28.088 1.857,14.356 6.094,27.926 16.629,38.396 10.463,10.397 24.399,6.908 29.068,-7.155 1.701,-5.123 1.993,-10.712 2.928,-16.089 z"
   id="path3-3"
   style="fill:#808080" />
		<path
   fill-rule="evenodd"
   clip-rule="evenodd"
   fill="#a7a9ac"
   d="m 535.154,344.107 c -0.813,-2.539 -1.461,-4.107 -1.812,-5.739 -1.09,-5.072 1.926,-10.387 6.97,-10.393 5.676,-0.007 11.907,0.435 16.908,2.785 8.881,4.172 17.04,9.893 25.454,15.042 4.41,2.7 7.033,11.264 4.634,15.608 -0.602,1.088 -2.318,1.672 -3.632,2.233 -5.58,2.384 -6.668,5.542 -3.562,10.725 0.389,0.648 0.771,1.368 1.338,1.832 7.666,6.272 4.559,13.766 2.55,21.831 -8.036,-4.551 -15.718,-8.902 -23.795,-13.477 -6.073,7.826 -11.958,15.408 -18.345,23.637 -12.548,-12.044 -24.794,-23.799 -35.626,-34.196 -0.96,-5.052 -0.918,-8.808 -2.398,-11.812 -3.271,-6.633 -4.981,-14.51 -12.842,-18.064 -1.108,-0.5 -1.421,-2.757 -2.421,-4.876 16.075,0.32 30.737,6.367 46.579,4.864 z"
   id="path4-5"
   style="fill:#808080;fill-opacity:1" />
		<path
   fill-rule="evenodd"
   clip-rule="evenodd"
   fill="#a7a9ac"
   d="m 584.904,370.562 c 10.528,-1.997 9.064,-9.429 9.979,-16.544 3.902,3.318 7.26,5.979 10.398,8.878 7.516,6.941 14.948,13.974 22.377,21.01 4.284,4.059 5.767,13.473 2.931,19.706 -2.454,5.397 -7.206,7.57 -12.646,6.372 -8.204,-1.806 -16.255,-4.369 -24.254,-6.974 -1.03,-0.336 -1.617,-2.787 -1.922,-4.353 -0.239,-1.226 0.06,-2.676 0.491,-3.895 3.264,-9.205 2.814,-17.48 -7.354,-24.2 z"
   id="path5-6"
   style="fill:#808080;fill-opacity:1" />
		<path
   fill-rule="evenodd"
   clip-rule="evenodd"
   fill="#a7a9ac"
   d="m 645.341,687.456 c -11.763,30.075 -56.624,89.866 -70.754,93.395 6.487,-9.531 12.484,-18.36 18.499,-27.177 11.879,-17.413 23.782,-34.808 35.632,-52.24 1.269,-1.866 2.478,-3.839 3.312,-5.923 2.354,-5.893 6.614,-8.412 13.311,-8.055 z"
   id="path6-2"
   style="fill:#808080;fill-opacity:1" />
		<path
   fill-rule="evenodd"
   clip-rule="evenodd"
   fill="#a7a9ac"
   d="m 495.675,764.222 c 6.671,1.039 12.743,1.985 18.915,2.947 0.776,11.922 -3.454,24.629 9.533,33.197 -7.885,2.879 -14.889,5.641 -22.063,7.849 -1.159,0.355 -3.737,-1.383 -4.536,-2.79 -5.203,-9.168 -5.278,-19.219 -4.204,-29.32 0.395,-3.718 1.438,-7.369 2.355,-11.883 z"
   id="path7-9"
   style="fill:#808080;fill-opacity:1" />
		<path
   fill-rule="evenodd"
   clip-rule="evenodd"
   fill="#a7a9ac"
   d="m 613.731,692.438 c -20.253,31.757 -40.327,63.193 -66.873,89.733 -0.605,-0.396 -1.211,-0.791 -1.816,-1.187 0.572,-1.178 1.028,-2.432 1.735,-3.522 16.994,-26.282 34.278,-52.382 50.846,-78.93 4.096,-6.564 8.672,-7.922 16.108,-6.094 z"
   id="path8-1"
   style="fill:#808080;fill-opacity:1" />
		<path
   fill-rule="evenodd"
   clip-rule="evenodd"
   fill="#a7a9ac"
   d="m 234.178,468.161 c 0.693,12.297 1.438,23.595 1.825,34.904 0.045,1.331 -1.572,3.382 -2.919,3.991 -12.956,5.862 -13.62,4.757 -16.577,-9.043 -2.217,-10.346 0.879,-17.149 8.783,-22.904 2.894,-2.107 5.648,-4.405 8.888,-6.948 z"
   id="path9-2"
   style="fill:#808080;fill-opacity:1" />
		<path
   fill-rule="evenodd"
   clip-rule="evenodd"
   fill="#a7a9ac"
   d="m 541.595,737.209 c -3.128,3.966 -6.167,8.018 -9.475,11.837 -0.648,0.749 -2.524,1.122 -3.52,0.773 -8.862,-3.105 -17.654,-6.414 -27.246,-9.949 5.923,-6.511 11.215,-12.328 16.113,-17.714 8.15,5.084 15.95,9.95 24.128,15.053 z"
   id="path10-7"
   style="fill:#808080;fill-opacity:1" />
		<path
   fill-rule="evenodd"
   clip-rule="evenodd"
   fill="#a7a9ac"
   d="m 344.255,567.318 c 0,6.843 0,12.818 0,20.123 -7.979,-1.632 -15.514,-2.947 -22.926,-4.765 -5.451,-1.337 -2.552,-5.918 -2.651,-9.064 -0.081,-2.563 0.678,-5.145 4.452,-5.222 6.801,-0.139 13.593,-0.667 21.125,-1.072 z"
   id="path11-0"
   style="fill:#808080;fill-opacity:1" />
		<path
   fill-rule="evenodd"
   clip-rule="evenodd"
   fill="#a7a9ac"
   d="m 273.361,651.456 c 2.481,4.865 4.79,9.853 7.516,14.601 2.608,4.545 5.649,8.84 8.876,13.826 -4.639,0.973 -8.807,2.073 -13.044,2.578 -1.09,0.13 -2.953,-1.352 -3.518,-2.542 -2.354,-4.958 -4.505,-10.026 -6.44,-15.164 -3.116,-8.273 -2.04,-10.302 6.61,-13.299 z"
   id="path12"
   style="fill:#808080;fill-opacity:1" />
		<path
   fill-rule="evenodd"
   clip-rule="evenodd"
   fill="#a7a9ac"
   d="m 467.157,162.22 c 9.72,-15.463 8.833,-29.944 -3.803,-43.602 11.782,1.475 23.42,18.28 20.446,29.116 -0.23,0.835 -0.804,1.718 -1.474,2.267 -5.02,4.118 -10.104,8.156 -15.169,12.219 z"
   id="path13"
   style="fill:#808080;fill-opacity:1" />
		<path
   fill-rule="evenodd"
   clip-rule="evenodd"
   fill="#a7a9ac"
   d="m 412.595,174.151 c 35.429,0.287 55.56,-24.49 47.664,-46.645 5.031,4.337 6.817,12.233 4.507,19.917 -5.797,19.275 -31.841,32.778 -52.171,26.728 z"
   id="path14"
   style="fill:#808080;fill-opacity:1" />
		<path
   fill-rule="evenodd"
   clip-rule="evenodd"
   fill="#a7a9ac"
   d="m 188.565,566.045 c 8.77,4.325 18.176,7.081 17.469,19.166 -14.126,3.171 -18.671,-1.472 -17.469,-19.166 z"
   id="path15"
   style="fill:#808080;fill-opacity:1" />
		<path
   fill-rule="evenodd"
   clip-rule="evenodd"
   fill="#a7a9ac"
   d="m 500.142,111.854 c 2.028,-4.667 4.904,-5.548 9.044,-4.561 4.954,1.183 10.025,1.985 15.09,2.567 3.572,0.411 4.62,1.955 3.346,6.044 -9.006,-1.326 -18.07,-2.663 -27.48,-4.05 z"
   id="path16"
   style="fill:#808080;fill-opacity:1" />
		<path
   fill-rule="evenodd"
   clip-rule="evenodd"
   fill="#a7a9ac"
   d="m 496.018,107.34 c -2.9,1.744 -4.634,3.658 -6.43,3.719 -9.151,0.312 -18.319,0.144 -27.495,-0.245 10.241,-5.349 20.987,-6.109 33.925,-3.474 z"
   id="path17"
   style="fill:#808080;fill-opacity:1" />
		<path
   fill-rule="evenodd"
   clip-rule="evenodd"
   fill="#a7a9ac"
   d="m 535.092,111.815 c 8.586,3.781 17.173,7.563 25.76,11.345 -0.182,0.47 -0.363,0.94 -0.545,1.41 -7.729,-2.101 -15.512,-4.034 -23.144,-6.444 -1.517,-0.479 -2.457,-2.785 -3.663,-4.248 0.531,-0.688 1.062,-1.375 1.592,-2.063 z"
   id="path18"
   style="fill:#808080;fill-opacity:1" />
	</g>
</g><g
         id="g30"
         transform="matrix(0.48280821,0,0,0.48280821,177.52061,180.81428)">
	<path
   fill-rule="evenodd"
   clip-rule="evenodd"
   fill="#f7941e"
   d="m 674.704,455.536 c 5.056,14.555 9.511,27.376 14.511,41.763 -9.292,2.253 -17.721,5.069 -26.373,6.256 -30.321,4.158 -58.916,-3.658 -86.412,-15.085 -43.291,-17.991 -80.981,-44.055 -109.844,-81.632 -15.415,-20.069 -27.326,-41.887 -32.349,-67.076 -2.417,-12.118 -1.327,-23.781 3.034,-35.155 0.681,-1.777 3.297,-4.111 4.9,-4.024 10.56,0.572 21.087,1.737 32.509,2.79 -14.186,19.415 -7.759,38.034 1.361,55.635 18.36,35.433 46.323,62.24 79.338,84.025 20.58,13.581 42.348,24.842 66.923,28.852 9.75,1.59 20.025,1.493 29.881,0.452 9.393,-0.993 16.729,-6.809 22.521,-16.801 z"
   id="path19" />
	<path
   fill-rule="evenodd"
   clip-rule="evenodd"
   fill="#f7941e"
   d="m 293.544,457.843 c 7.669,-9.488 15.032,-18.388 22.138,-27.489 2.876,-3.685 5.473,-3.323 9.165,-1.197 16.746,9.644 29.691,23.073 39.268,39.647 34.349,59.45 36.821,120.738 10.009,183.568 -0.286,0.671 -0.844,1.227 -1.587,2.277 -8.408,-6.038 -16.82,-11.823 -24.847,-18.1 -1.334,-1.042 -1.881,-4.52 -1.283,-6.389 7.88,-24.638 10.083,-49.77 7.39,-75.428 -4.234,-40.34 -21.742,-72.649 -56.836,-94.394 -0.797,-0.491 -1.522,-1.104 -3.417,-2.495 z m 71.329,22.838 c -0.835,-2.02 -1.384,-4.569 -2.781,-6.51 -6.083,-8.448 -11.784,-17.296 -18.79,-24.928 -12.388,-13.496 -12.679,-13.098 -26.506,-0.805 -3.324,2.956 -3.336,5.245 -0.556,8.577 10.069,12.066 19.858,24.365 29.934,36.427 1.286,1.538 3.639,3.06 5.497,3.059 3.526,0 13.177,-11.949 13.202,-15.82 z"
   id="path20" />
	<path
   fill-rule="evenodd"
   clip-rule="evenodd"
   fill="#f7941e"
   d="m 440.473,744.974 c 8.914,4.203 13.053,0.941 17.315,-4.94 20.029,-27.64 43.609,-51.602 73.534,-68.759 9.393,-5.384 9.357,-5.952 3.191,-14.497 -0.532,-0.738 -1.045,-1.49 -1.93,-2.757 11.251,-6.037 22.188,-11.905 33.938,-18.21 3.006,11.15 5.88,21.811 8.545,31.695 -15.258,10.719 -30.533,20.389 -44.603,31.573 -23.557,18.727 -43.887,40.48 -56.155,68.539 -2.789,6.378 -4.963,13.209 -6.162,20.053 -2.284,13.021 0.128,24.921 12.573,34.083 -7.898,1.212 -14.543,2.416 -21.234,3.213 -7.289,0.867 -12.895,-2.787 -17.544,-7.812 -9.843,-10.635 -14.865,-23.185 -11.638,-37.619 2.543,-11.37 6.535,-22.415 10.17,-34.562 z"
   id="path21" />
	<path
   fill-rule="evenodd"
   clip-rule="evenodd"
   fill="#f7941e"
   d="m 369.864,660.977 c -14.946,27.081 -33.914,48.589 -64.296,57.636 -15.594,4.644 -30.692,4.096 -45.548,-2.166 -2.263,-0.954 -4.575,-3.327 -5.513,-5.603 -2.92,-7.081 -5.191,-14.431 -7.862,-22.104 46.095,12.381 74.653,-9.273 95.718,-47.272 9.149,6.49 18.338,13.008 27.501,19.509 z"
   id="path22" />
	<path
   fill-rule="evenodd"
   clip-rule="evenodd"
   fill="#f7941e"
   d="m 312.413,422.701 c -8.042,10.954 -15.239,20.941 -22.72,30.709 -0.935,1.22 -3.521,2.035 -5.101,1.742 -5.393,-1 -10.641,-2.748 -16.011,-3.901 -14.44,-3.103 -26.915,2.345 -38.709,9.65 -17.712,10.972 -29.493,27.082 -38.256,45.637 -1.206,2.551 -2.312,5.149 -4.471,7.372 1.763,-5.186 3.299,-10.463 5.327,-15.544 9.779,-24.503 22.607,-47.009 44.441,-62.875 16.357,-11.887 34.467,-19.453 55.233,-17.348 6.846,0.694 13.529,2.996 20.267,4.558 z"
   id="path23" />
	<path
   fill-rule="evenodd"
   clip-rule="evenodd"
   fill="#f7941e"
   d="m 416.911,201.436 c -1.31,6.88 -2.744,13.164 -3.651,19.522 -0.906,6.352 -1.284,12.779 -1.952,19.799 -15.779,0 -31.783,0 -48.225,0 0.583,-7.711 1.436,-15.562 1.604,-23.427 0.045,-2.141 -1.766,-6.017 -3.077,-6.175 -3.989,-0.48 -10.125,-3.034 -11.709,2.137 -2.829,9.229 -4.343,18.988 -2.623,29.502 -2.892,0.39 -6.323,0.853 -10.798,1.457 3.042,-8.979 6.626,-17.103 8.476,-25.604 2.624,-12.056 10.264,-16.172 21.527,-17.638 16.644,-2.168 33.139,-3.213 50.428,0.427 z"
   id="path24"
   style="fill:#808080;fill-opacity:1" />
	<path
   fill-rule="evenodd"
   clip-rule="evenodd"
   fill="#f7941e"
   d="m 577.578,652.188 c 20.447,-10.705 41.101,-19.106 63.771,-20.767 8.543,-0.625 17.264,0.359 25.831,1.286 3.21,0.348 6.456,2.241 9.263,4.078 7.4,4.845 7.864,6.601 4.938,14.82 -1.519,4.266 -3.153,8.49 -4.863,13.081 -10.342,-21.355 -28.43,-22.212 -46.683,-17.494 -14.913,3.854 -29.138,10.383 -43.652,15.768 -1.58,0.587 -3.054,1.459 -5.213,2.507 -1.14,-4.466 -2.193,-8.585 -3.392,-13.279 z"
   id="path25" />
	<path
   fill-rule="evenodd"
   clip-rule="evenodd"
   fill="#f7941e"
   d="m 575.631,644.391 c -0.813,-2.734 -1.884,-6.332 -3.298,-11.086 10.115,-3.471 19.98,-7.107 30.003,-10.238 17.294,-5.402 35.03,-9.012 53.169,-7.456 9.474,0.812 18.752,3.999 28.093,6.221 4.981,1.187 7.014,3.982 4.543,9.069 -0.732,1.508 -1.041,3.221 -1.746,5.488 -6.859,-6.306 -14.47,-10.479 -23.528,-11.855 -15.914,-2.419 -31.465,-0.56 -46.525,4.478 -13.566,4.536 -26.796,10.077 -40.711,15.379 z"
   id="path26" />
	<path
   fill-rule="evenodd"
   clip-rule="evenodd"
   fill="#f7941e"
   d="m 246.65,709.921 c -24.447,-11.458 -50.278,-48.029 -55.43,-78.748 0.788,1.42 1.623,2.817 2.357,4.266 9.714,19.157 22.813,35.278 41.173,46.911 2.425,1.537 4.446,4.508 5.498,7.256 2.419,6.322 4.125,12.916 6.402,20.315 z"
   id="path27" />
	<path
   fill-rule="evenodd"
   clip-rule="evenodd"
   fill="#f7941e"
   d="m 532.604,255.762 c 1.354,-6.7 2.545,-12.595 3.864,-19.123 8.515,2.261 16.61,4.411 25.217,6.696 -1.399,6.226 -2.709,12.046 -4.152,18.469 -8.323,-2.017 -16.294,-3.949 -24.929,-6.042 z"
   id="path28" />
	<path
   fill-rule="evenodd"
   clip-rule="evenodd"
   fill="#f7941e"
   d="m 629.381,284.627 c -4.134,-1.368 -7.826,-2.589 -12,-3.971 1.183,-5.91 2.316,-11.567 3.453,-17.247 10.073,2.682 10.396,3.469 8.547,21.218 z"
   id="path29" />
	<path
   fill-rule="evenodd"
   clip-rule="evenodd"
   fill="#f7941e"
   d="m 582.453,269.378 c -0.93,-1.134 -2.789,-2.416 -2.637,-3.379 1.012,-6.38 2.456,-12.691 4.85,-18.896 2.174,7.199 -0.467,14.121 -0.655,21.138 -0.52,0.38 -1.038,0.759 -1.558,1.137 z"
   id="path30" />
</g><g
         id="g52"
         transform="matrix(0.48280821,0,0,0.48280821,177.52061,180.81428)">
	<path
   fill-rule="evenodd"
   clip-rule="evenodd"
   fill="#ffffff"
   d="m 418.38,772.854 c -33.853,-9.608 -63.022,-26.052 -87.282,-49.83 9.417,-8.053 19.116,-15.176 27.416,-23.669 21.81,-22.315 32.584,-50.441 39.736,-80.109 13.88,-57.575 3.998,-111.455 -26.189,-162.691 23.082,-20.016 48.059,-37.698 75.269,-53.496 3.021,3.706 6.087,7.467 9.151,11.23 40.272,49.46 90.693,83.085 153.149,97.684 9.017,2.107 18.327,3.053 27.55,4.123 3.314,0.384 4.683,1.716 5.119,4.792 3.604,25.39 7.012,50.733 1.636,76.38 -0.936,4.46 -2.585,6.14 -6.744,6.478 -32.917,2.678 -63.295,13.604 -92.258,28.856 -44.32,23.341 -81.876,54.375 -108.971,97.06 -8.298,13.069 -13.9,27.334 -17.582,43.192 z M 607.833,559.947 c 2.077,5.267 3.182,10.398 5.906,14.438 4.341,6.438 11.844,5.419 15.6,-1.397 4.777,-8.671 2.021,-20.914 -2.782,-26.824 -3.796,-4.67 -9.1,-5.102 -12.508,-0.229 -2.787,3.983 -4.077,9.012 -6.216,14.012 z M 420.052,719.068 c -0.355,-0.872 -0.928,-2.878 -1.933,-4.637 -4.172,-7.298 -10.602,-11.722 -18.587,-13.938 -6.821,-1.894 -11.715,2.907 -10.121,9.803 1.948,8.427 12.726,17.537 21.423,18.108 5.752,0.379 9.386,-2.826 9.218,-9.336 z"
   id="path31"
   style="fill:#1b1b1f;fill-opacity:1" />
	<path
   fill-rule="evenodd"
   clip-rule="evenodd"
   fill="#ffffff"
   d="m 379.748,307.963 c 0,6.646 -0.098,12.308 0.026,17.965 0.135,6.119 1.474,7.339 7.599,6.86 10.947,-0.855 21.884,-1.85 33.382,-2.833 1.384,24.438 10.602,45.881 22.877,66.343 -13.631,8.554 -27.182,16.22 -39.791,25.207 -12.472,8.889 -23.993,19.113 -36.48,29.195 -18.389,-23.58 -41.657,-41.502 -73.305,-44.685 -32.114,-3.23 -57.83,10.632 -80.373,32.256 16.326,-32.927 39.021,-60.552 68.171,-82.917 28.988,-22.241 61.096,-38 97.894,-47.391 z m -9.847,68.785 c 3.707,-1.204 8.049,-1.591 10.939,-3.843 2.788,-2.172 5.714,-6.348 5.561,-9.497 -0.152,-3.135 -3.462,-7.53 -6.462,-8.766 -4.029,-1.66 -9.302,-1.79 -13.661,-0.836 -7.578,1.657 -12.167,7.782 -11.188,12.949 1.053,5.553 6.659,9.099 14.811,9.993 z"
   id="path32"
   style="fill:#1b1b1f;fill-opacity:1" />
	<path
   fill-rule="evenodd"
   clip-rule="evenodd"
   fill="#ffffff"
   d="m 266.157,682.822 c -12.117,-1.048 -22.597,-4.929 -31.555,-11.849 -25.786,-19.917 -40.135,-46.511 -44.43,-78.671 -0.067,-0.502 0.058,-1.029 0.114,-1.857 5.235,0.738 10.237,1.687 15.283,2.094 6.502,0.524 8.374,-2.205 7.423,-8.611 -1.542,-10.399 -6.539,-17.548 -16.941,-20.58 -4.753,-1.386 -7.05,-4.623 -6.664,-9.85 1.519,-20.536 6.811,-39.812 18.805,-58.346 1.191,5.479 1.898,9.838 3.11,14.052 1.877,6.53 5.079,9.054 11.714,7.999 5.343,-0.85 10.815,-2.481 15.522,-5.058 2.337,-1.278 4.294,-5.444 4.333,-8.333 0.148,-10.812 -0.343,-21.651 -1.042,-32.451 -0.412,-6.35 2.598,-9.337 8.215,-10.996 8.999,-2.658 17.7,-1.165 26.276,1.649 1.016,0.333 2.28,2.64 2.028,3.699 -4.293,18.024 -8.807,35.996 -13.36,54.334 -3.904,-1.226 -6.708,-2.279 -9.597,-2.982 -11.688,-2.845 -21.414,0.35 -28.818,9.898 -6.146,7.927 -8.749,17.227 -9.482,27.036 -1.692,22.646 3.247,43.775 15.065,63.228 4.715,7.762 10.746,14.203 18.66,18.844 14.004,8.212 28.285,5 37.102,-8.689 8.38,-13.013 10.956,-27.662 9.283,-42.626 -1.153,-10.316 -0.643,-18.215 8.687,-25.188 11.501,-8.598 21.642,-19.015 33.769,-29.901 1.935,10.939 3.643,20.588 5.464,30.882 -8.601,0.477 -16.125,0.993 -23.657,1.276 -5.4,0.202 -8.566,2.576 -9.034,8.137 -0.062,0.744 -0.44,1.457 -0.571,2.201 -2.231,12.671 -0.781,14.904 11.641,17.878 3.318,0.794 6.643,1.565 9.983,2.262 3.142,0.653 6.308,1.192 9.415,1.771 4.851,25.261 -18.528,67.227 -46.691,82.929 -4.449,-8.043 -9.047,-16.034 -13.335,-24.188 -6.112,-11.62 -10.878,-12.529 -20.624,-3.575 -3.832,3.521 -5.328,7.762 -3.619,12.848 1.147,3.415 2.347,6.812 3.577,10.198 1.208,3.329 2.485,6.636 3.951,10.536 z"
   id="path33"
   style="fill:#1b1b1f;fill-opacity:1" />
	<path
   fill-rule="evenodd"
   clip-rule="evenodd"
   fill="#ffffff"
   d="m 630.731,259.125 c -2.83,-1.427 -5.148,-2.629 -7.496,-3.772 -5.767,-2.807 -7.646,-1.912 -9.086,4.469 -1.13,4.995 -2.081,10.03 -3.189,15.029 -0.217,0.984 -0.785,1.891 -1.192,2.833 -0.522,-0.088 -1.046,-0.175 -1.569,-0.263 0.469,-4.246 0.901,-8.496 1.416,-12.736 0.388,-3.192 0.524,-6.475 1.407,-9.533 1.41,-4.882 -0.932,-7.013 -5.032,-8.503 -6.393,-2.323 -8.657,-1.166 -9.85,5.595 -1.139,6.457 -2.071,12.949 -3.094,19.426 -0.511,-0.024 -1.022,-0.048 -1.532,-0.072 0.358,-4.76 0.686,-9.522 1.09,-14.278 0.191,-2.257 0.648,-4.494 0.781,-6.752 0.445,-7.601 -3.498,-12.161 -10.854,-11.25 -2.272,0.281 -5.212,3.69 -5.947,6.219 -1.894,6.516 -2.725,13.34 -4.053,20.422 -2.541,-0.674 -4.852,-1.287 -7.776,-2.062 1.605,-6.006 3.132,-11.798 4.705,-17.579 2.134,-7.84 1.438,-8.972 -6.642,-10.923 -8.055,-1.944 -16.098,-3.941 -24.454,-5.991 1.419,-8.288 2.68,-16.102 4.104,-23.885 4.052,-22.131 -3.228,-37.644 -23.384,-47.166 -7.427,-3.508 -15.802,-5.013 -23.755,-7.397 -1.416,-0.424 -2.883,-0.679 -4.213,-0.985 -1.719,-20.877 -2.908,-18.929 -11.04,-31.307 7.421,0.562 14.099,0.833 20.716,1.612 25.135,2.961 49.612,8.621 73.511,17.13 11.704,4.168 19.979,11.935 27.498,21.19 23.667,29.132 32.134,62.656 28.93,100.529 z"
   id="path34"
   style="fill:#1b1b1f;fill-opacity:1" />
	<path
   fill-rule="evenodd"
   clip-rule="evenodd"
   fill="#ffffff"
   d="m 417.577,780.502 c -1.107,16.599 2.368,31.415 14.584,45.004 -41.159,-1.834 -78.336,-12.498 -113.363,-31.132 -35.127,-18.687 -64.595,-43.815 -86.724,-77.586 1.493,0.829 3.017,1.609 4.475,2.497 26.136,15.934 53.45,19.485 82.346,8.195 1.969,-0.771 5.585,-0.491 6.952,0.831 25.43,24.604 55.882,40.336 89.167,51.187 0.709,0.231 1.391,0.543 2.563,1.004 z m -58.221,10.675 c 8.068,-0.035 12.696,-4.741 9.226,-8.71 -4.84,-5.534 -10.713,-10.682 -17.16,-14.051 -2.669,-1.395 -9.146,1.126 -11.742,3.887 -2.69,2.859 -0.222,7.361 2.683,10.549 4.863,5.335 10.908,7.877 16.993,8.325 z"
   id="path35"
   style="fill:#1b1b1f;fill-opacity:1" />
	<path
   fill-rule="evenodd"
   clip-rule="evenodd"
   fill="#ffffff"
   d="m 536.056,321.544 c -6.469,3.096 -9.931,8.162 -10.187,16.716 -12.529,-2.097 -24.772,-4.013 -36.961,-6.231 -8.387,-1.526 -9.315,-0.698 -7.055,7.374 1.355,4.835 3.04,9.131 8.106,11.698 4.27,2.164 7.535,13.412 6.808,18.218 -0.281,1.857 0.801,4.551 2.188,5.932 13.058,13 26.338,25.778 39.504,38.669 3.177,3.111 5.701,2.061 8.099,-0.898 5.008,-6.18 10.008,-12.365 14.914,-18.427 11.558,6.021 22.693,12.081 34.082,17.622 4.381,2.131 9.255,3.446 14.044,4.501 17.42,3.837 25.275,-1.146 29.336,-18.769 1.438,1.618 2.838,2.833 3.801,4.33 7.469,11.615 15.194,23.086 22.166,34.995 6.221,10.626 2.439,21.498 -9.64,24.872 -8.507,2.378 -18.105,3.058 -26.866,1.88 -21.913,-2.945 -41.711,-12.278 -60.479,-23.676 -30.106,-18.283 -56.002,-41.247 -75.028,-71.07 -6.338,-9.935 -10.934,-21.155 -15.099,-32.249 -3.342,-8.899 -1.78,-18.202 4.031,-25.939 1.837,-2.446 6.238,-5.194 8.678,-4.595 15.363,3.771 30.505,8.447 45.719,12.823 -0.054,0.742 -0.108,1.483 -0.161,2.224 z"
   id="path36"
   style="fill:#1b1b1f;fill-opacity:1" />
	<path
   fill-rule="evenodd"
   clip-rule="evenodd"
   fill="#ffffff"
   d="m 529.993,786.321 c 11.259,6.983 20.485,4.881 34.338,-6.902 -1.534,2.562 -3.068,5.124 -4.988,8.331 2.657,0.624 4.941,1.161 8.21,1.929 -15.389,9.607 -31.348,16.188 -48.076,21.259 3.145,-1.581 6.365,-3.029 9.412,-4.778 3.065,-1.761 5.959,-3.82 9.733,-6.272 -2.168,-1.224 -3.33,-2.058 -4.619,-2.581 -10.75,-4.367 -14.534,-10.739 -13.042,-22.141 0.147,-1.128 0.379,-2.247 0.606,-3.362 2.208,-10.846 2.055,-11.04 -9.099,-12.445 -4.7,-0.592 -9.456,-0.966 -14.066,-1.982 -5.676,-1.252 -8.51,1.013 -10.066,6.288 -5.457,18.493 -5.469,36.242 6.73,52.53 -11.269,-0.115 -18.244,-6.869 -18.554,-17.989 -0.479,-17.133 6.642,-31.682 15.729,-45.526 1.246,-1.899 2.609,-3.722 4.193,-5.971 8.679,3.079 17.348,6.228 26.066,9.23 9.883,3.403 12.438,2.601 19.06,-5.707 2.014,-2.525 4.041,-5.05 5.888,-7.696 4.688,-6.718 3.863,-9.547 -3.319,-13.394 -6.964,-3.728 -13.797,-7.701 -22.437,-12.547 11.263,-8.563 20.864,-16.536 31.134,-23.528 19.808,-13.486 40.309,-26.16 63.349,-33.127 11.583,-3.503 24.2,-4.619 36.383,-4.832 13.454,-0.235 21.136,16.848 14.667,29.692 -8.611,17.099 -20.582,31.818 -32.161,46.84 -3.327,4.317 -6.644,8.643 -10.529,12.617 12.492,-21.059 24.785,-42.162 34.646,-65.491 -9.665,-0.409 -18.008,-0.269 -26.606,2.355 -6.312,1.927 -13.658,2.116 -20.247,1.119 -10.722,-1.625 -17.47,2.837 -22.8,11.222 -7.847,12.344 -15.663,24.705 -23.631,36.971 -10.243,15.767 -20.649,31.429 -30.919,47.179 -1.832,2.805 -3.344,5.82 -4.985,8.709 z"
   id="path37"
   style="fill:#1b1b1f;fill-opacity:1" />
	<path
   fill-rule="evenodd"
   clip-rule="evenodd"
   fill="#ffffff"
   d="m 621.707,302.075 c -14.596,8.109 -27.784,15.584 -41.181,22.665 -1.41,0.746 -4.308,-0.381 -6.079,-1.399 -24.552,-14.096 -50.61,-24.334 -78.264,-30.318 -36.297,-7.854 -72.73,-8.518 -109.14,-0.761 -5.897,1.257 -10.101,0.341 -14.604,-4.097 -8.622,-8.499 -18.072,-16.159 -26.978,-24.821 93.593,-1.405 185.117,11.276 276.246,38.731 z"
   id="path38"
   style="fill:#1b1b1f;fill-opacity:1" />
	<path
   fill-rule="evenodd"
   clip-rule="evenodd"
   fill="#ffffff"
   d="m 525.888,253.082 c -36.321,-4.473 -72.008,-8.868 -108.603,-13.374 2.643,-14.1 5.331,-28.763 8.233,-43.383 0.256,-1.288 1.699,-2.874 2.956,-3.344 9.958,-3.726 20.004,-7.213 28.901,-10.376 -8.872,18.483 -6.279,33.277 8.96,45.354 13.337,10.568 32.353,11.071 44.309,1.172 12.319,-10.201 15.665,-27.996 8.083,-42.993 -8.288,-16.394 -23.793,-20.672 -50.601,-13.903 0.322,-0.533 0.536,-1.052 0.89,-1.447 14.034,-15.688 25.336,-17.068 46.791,-5.734 17.205,9.089 22.682,19.622 19.401,39.152 -2.754,16.403 -6.206,32.688 -9.32,48.876 z"
   id="path39"
   style="fill:#1b1b1f;fill-opacity:1" />
	<path
   fill-rule="evenodd"
   clip-rule="evenodd"
   fill="#ffffff"
   d="m 691.837,510.691 c 7.541,33.244 7.642,66.604 1.117,99.341 -14.585,-2.846 -28.601,-5.582 -43.284,-8.447 7.618,-27.301 3.374,-55.547 -1.023,-83.478 14.288,-2.453 28.215,-4.844 43.19,-7.416 z m -24.142,53.248 c 1.778,5.097 2.578,9.969 5.088,13.686 1.693,2.507 5.961,4.871 8.782,4.566 2.781,-0.299 6.149,-3.551 7.582,-6.362 4.058,-7.952 3.638,-16.315 -0.026,-24.468 -3.083,-6.856 -10.451,-8.267 -14.842,-2.153 -3.052,4.249 -4.42,9.71 -6.584,14.731 z"
   id="path40"
   style="fill:#1b1b1f;fill-opacity:1" />
	<path
   fill-rule="evenodd"
   clip-rule="evenodd"
   fill="#ffffff"
   d="m 351.94,196 c 11.585,-15.579 23.171,-31.157 34.756,-46.737 0.582,0.087 1.163,0.174 1.744,0.26 0.388,25.555 15.961,34.52 37.174,36.382 -1.907,1.782 -4.508,4.213 -8.095,7.566 -20.734,-4.053 -42.647,-2.503 -64.269,4.052 -0.436,-0.507 -0.873,-1.015 -1.31,-1.523 z"
   id="path41"
   style="fill:#1b1b1f;fill-opacity:1" />
	<path
   fill-rule="evenodd"
   clip-rule="evenodd"
   fill="#ffffff"
   d="m 472.12,182.976 c -2.629,12.305 2.093,19.649 13.351,21.305 10.493,1.543 18.542,-5.884 19.668,-18.148 8.396,6.428 9.068,19.168 5.963,27.194 -3.823,9.885 -12.432,14.494 -24.28,13.375 -10.997,-1.04 -21.517,-9.78 -23.279,-20.316 -1.443,-8.626 -1.733,-18.79 8.577,-23.41 z"
   id="path42"
   style="fill:#808080;fill-opacity:1" />
	<path
   fill-rule="evenodd"
   clip-rule="evenodd"
   fill="#ffffff"
   d="m 386.383,324.96 c 0.527,-6.579 0.991,-12.355 1.537,-19.155 11.866,-1.807 23.719,-3.611 36.619,-5.575 -1.499,7.695 -2.722,14.317 -4.152,20.894 -0.177,0.814 -1.413,1.936 -2.221,1.991 -10.337,0.699 -20.684,1.23 -31.783,1.845 z"
   id="path43"
   style="fill:#1b1b1f;fill-opacity:1" />
	<path
   fill-rule="evenodd"
   clip-rule="evenodd"
   fill="#ffffff"
   d="m 529.653,662.487 c -11.863,8.815 -24.489,16.266 -34.674,26.215 -15.441,15.085 -29.172,31.921 -43.675,47.971 -1.306,1.445 -2.944,2.59 -4.43,3.875 -0.481,-0.409 -0.963,-0.819 -1.444,-1.228 0.99,-1.906 1.817,-3.919 2.993,-5.703 19.307,-29.289 43.967,-53.188 73.062,-72.66 3.828,-2.561 6.499,-2.613 8.168,1.53 z"
   id="path44"
   style="fill:#1b1b1f;fill-opacity:1" />
	<path
   fill-rule="evenodd"
   clip-rule="evenodd"
   fill="#ffffff"
   d="m 352.522,235.466 c 0.889,-6.046 1.778,-12.092 2.684,-18.257 2.815,1.376 3.495,7.117 1.894,16.083 -0.225,1.257 -1.802,2.271 -2.754,3.399 -0.609,-0.408 -1.216,-0.817 -1.824,-1.225 z"
   id="path45"
   style="fill:#1b1b1f;fill-opacity:1" />
	<path
   fill-rule="evenodd"
   clip-rule="evenodd"
   fill="#ffffff"
   d="m 620.544,549.384 c 5.355,5.573 6.616,14.244 3.192,20.008 -1.688,2.842 -3.514,2.315 -5.354,0.228 -3.898,-4.423 -2.779,-15.934 2.162,-20.236 z"
   id="path46"
   style="fill:#1b1b1f;fill-opacity:1" />
	<path
   fill-rule="evenodd"
   clip-rule="evenodd"
   fill="#ffffff"
   d="m 396.107,707.245 c 8.254,-0.604 16.604,6.387 16.972,13.838 -7.486,1.146 -15.775,-5.45 -16.972,-13.838 z"
   id="path47"
   style="fill:#1b1b1f;fill-opacity:1" />
	<path
   fill-rule="evenodd"
   clip-rule="evenodd"
   fill="#ffffff"
   d="m 371.726,358.08 c 2.77,1.071 5.261,1.419 6.758,2.824 1.041,0.977 1.586,3.999 0.849,5.083 -2.739,4.028 -13.159,4.856 -16.38,1.362 -0.768,-0.833 -0.568,-3.98 0.275,-4.614 2.603,-1.955 5.731,-3.211 8.498,-4.655 z"
   id="path48"
   style="fill:#1b1b1f;fill-opacity:1" />
	<path
   fill-rule="evenodd"
   clip-rule="evenodd"
   fill="#ffffff"
   d="m 345.245,775.073 c 7.562,0.176 13.627,2.318 17.878,8.74 -5.916,2.749 -14.768,-1.468 -17.878,-8.74 z"
   id="path49"
   style="fill:#1b1b1f;fill-opacity:1" />
	<path
   fill-rule="evenodd"
   clip-rule="evenodd"
   fill="#ffffff"
   d="m 352.458,489.292 c -10.637,-13.173 -20.016,-24.789 -29.639,-36.706 2.59,-2.233 4.995,-4.306 7.755,-6.687 12.03,8.921 20.418,20.52 26.624,33.602 0.867,1.83 -2.684,5.756 -4.74,9.791 z"
   id="path50"
   style="fill:#1b1b1f;fill-opacity:1" />
	<path
   fill-rule="evenodd"
   clip-rule="evenodd"
   fill="#ffffff"
   d="m 276.673,588.488 c -1.12,4.671 -2.064,10.702 -4.043,16.372 -2.949,8.45 -9.975,10.011 -16.419,3.743 -10.034,-9.761 -14.308,-22.392 -15.229,-35.856 -0.546,-7.985 0.207,-16.404 2.242,-24.137 2.654,-10.084 8.833,-11.252 16.128,-3.884 11.588,11.702 15.273,26.689 17.321,43.762 z"
   id="path51"
   style="fill:#1b1b1f;fill-opacity:1" />
	<path
   fill-rule="evenodd"
   clip-rule="evenodd"
   fill="#ffffff"
   d="m 681.909,552.17 c 5.099,7.287 5.957,14.519 1.574,21.855 -0.644,1.077 -3.708,2.033 -4.561,1.449 -6.147,-4.204 -4.114,-20.154 2.987,-23.304 z"
   id="path52"
   style="fill:#1b1b1f;fill-opacity:1" />
</g></g></g></g></svg>
